<svg width="15" height="16" viewBox="0 0 15 16" fill="none" xmlns="http://www.w3.org/2000/svg">
<g clip-path="url(#clip0_130_240)">
<path d="M2.29883 4.44141H12.7012C13.0853 4.44159 13.4046 4.7371 13.4346 5.12012L14.1426 14.1758C14.1758 14.6035 13.8372 14.9688 13.4082 14.9688H1.5918C1.16275 14.9688 0.824173 14.6035 0.857422 14.1758L1.56543 5.12012C1.59535 4.7371 1.91468 4.44159 2.29883 4.44141Z" fill="#F7F9FF" stroke="#F7F9FF" stroke-width="1.47222"/>
<mask id="path-2-inside-1_130_240" fill="white">
<path d="M3.88867 6.20508V2.81377C3.88867 1.37299 5.50537 0.205078 7.49978 0.205078C9.4942 0.205078 11.1109 1.37299 11.1109 2.81377V6.20508"/>
</mask>
<path d="M3.88867 6.20508H4.88867V2.81377H3.88867H2.88867V6.20508H3.88867ZM3.88867 2.81377H4.88867C4.88867 2.4951 5.06558 2.11662 5.53191 1.77974C5.99694 1.4438 6.68946 1.20508 7.49978 1.20508V0.205078V-0.794922C6.31569 -0.794922 5.20265 -0.449687 4.36073 0.158525C3.52011 0.765794 2.88867 1.69167 2.88867 2.81377H3.88867ZM7.49978 0.205078V1.20508C8.31011 1.20508 9.00263 1.4438 9.46766 1.77974C9.93399 2.11662 10.1109 2.4951 10.1109 2.81377H11.1109H12.1109C12.1109 1.69167 11.4795 0.765794 10.6388 0.158525C9.79691 -0.449687 8.68387 -0.794922 7.49978 -0.794922V0.205078ZM11.1109 2.81377H10.1109V6.20508H11.1109H12.1109V2.81377H11.1109Z" fill="#F7F9FF" mask="url(#path-2-inside-1_130_240)"/>
</g>
<defs>
<clipPath id="clip0_130_240">
<rect width="15" height="16" fill="white"/>
</clipPath>
</defs>
</svg>
